<?xml version="1.0" encoding="utf-8"?>
<!-- Generator: Adobe Illustrator 15.0.0, SVG Export Plug-In . SVG Version: 6.00 Build 0)  -->
<!DOCTYPE svg PUBLIC "-//W3C//DTD SVG 1.1//EN" "http://www.w3.org/Graphics/SVG/1.1/DTD/svg11.dtd">
<svg version="1.1" id="Layer_1" xmlns="http://www.w3.org/2000/svg" xmlns:xlink="http://www.w3.org/1999/xlink" x="0px" y="0px"
	 width="24px" height="24px" viewBox="0 0 24 24" enable-background="new 0 0 24 24" xml:space="preserve">
<path fill="none" d="M0,0h24v24H0V0z"/>
<g>
	<path fill="#757575" d="M16.434,20.925c-1.594,0.84-3.217,1.159-5.158,1.159c-4.752,0-8.779-3.478-8.779-9.041
		c0-5.969,4.144-11.127,10.576-11.127c5.041,0,8.432,3.535,8.432,8.374c0,4.347-2.434,6.896-5.158,6.896
		c-1.158,0-2.23-0.782-2.144-2.55h-0.116c-1.014,1.71-2.347,2.55-4.085,2.55c-1.681,0-3.13-1.361-3.13-3.65
		c0-3.594,2.84-6.868,6.867-6.868c1.246,0,2.348,0.261,3.101,0.609l-0.985,5.244c-0.435,2.202-0.087,3.217,0.869,3.245
		c1.479,0.029,3.13-1.941,3.13-5.303c0-4.201-2.521-7.215-7.013-7.215c-4.723,0-8.692,3.738-8.692,9.62
		c0,4.839,3.158,7.824,7.447,7.824c1.651,0,3.187-0.348,4.375-1.015L16.434,20.925z M14.84,8.407
		c-0.29-0.087-0.783-0.203-1.449-0.203c-2.55,0-4.607,2.405-4.607,5.216c0,1.275,0.638,2.202,1.913,2.202
		c1.681,0,3.216-2.145,3.534-3.94L14.84,8.407z"/>
</g>
</svg>
