<?xml version="1.0" encoding="utf-8"?>
<!-- Generator: Adobe Illustrator 15.0.0, SVG Export Plug-In . SVG Version: 6.00 Build 0)  -->
<!DOCTYPE svg PUBLIC "-//W3C//DTD SVG 1.1//EN" "http://www.w3.org/Graphics/SVG/1.1/DTD/svg11.dtd">
<svg version="1.1" id="Layer_1" xmlns="http://www.w3.org/2000/svg" xmlns:xlink="http://www.w3.org/1999/xlink" x="0px" y="0px"
	 width="29px" height="29px" viewBox="0 0 29 29" enable-background="new 0 0 29 29" xml:space="preserve">
<g>
	<g>
		<path fill="#8E8E93" d="M6,0h17c3.313,0,6,2.687,6,6v17c0,3.313-2.687,6-6,6H6c-3.313,0-6-2.687-6-6V6C0,2.687,2.687,0,6,0z"/>
		<g transform="translate(5.000000, 8.000000)">
			<g>
				<path fill="#FFFFFF" d="M19,13V0.701l-6.486,5.068l3.369,3.931l-0.1,0.102L11.88,6.267L9.5,8.125L7.12,6.267L3.216,9.801
					L3.117,9.699l3.365-3.931L0,0.711V13H19z"/>
				<path fill="#FFFFFF" d="M18.59,0H0.396L9.5,7.104L18.59,0z"/>
			</g>
		</g>
	</g>
</g>
<text transform="matrix(1 0 0 1 3.2495 21)" display="none" fill="#FFFFFF" font-family="'MyriadPro-Regular'" font-size="28.9781">@</text>
</svg>
